HIERARCHY
ROOT Hips
{
  OFFSET 42.3664 102.941 -11.8346
  CHANNELS 6 Xposition Yposition Zposition Zrotation Xrotation Yrotation
  JOINT Chest
  {
    OFFSET 1.23234e-007 14.8421 1.27324e-009
    CHANNELS 6 Xposition Yposition Zposition Zrotation Xrotation Yrotation
    JOINT Neck
    {
      OFFSET 0.51659 29.8236 6.51843
      CHANNELS 6 Xposition Yposition Zposition Zrotation Xrotation Yrotation
      JOINT Head
      {
        OFFSET 1.16803e-007 7.47049 6.44171e-007
        CHANNELS 6 Xposition Yposition Zposition Zrotation Xrotation Yrotation
        End Site
        {
          OFFSET -4.32676e-008 16.2908 2.16786e-007
        }
      }
    }
    JOINT LeftCollar
    {
      OFFSET 6.64893 27.3161 3.27471
      CHANNELS 6 Xposition Yposition Zposition Zrotation Xrotation Yrotation
      JOINT LeftUpArm
      {
        OFFSET 10.8584 2.41798 -0.945791
        CHANNELS 6 Xposition Yposition Zposition Zrotation Xrotation Yrotation
        JOINT LeftLowArm
        {
          OFFSET 3.77631 -24.5904 -1.70468
          CHANNELS 6 Xposition Yposition Zposition Zrotation Xrotation Yrotation
          JOINT LeftHand
          {
            OFFSET 1.01026 -21.1231 1.74131
            CHANNELS 6 Xposition Yposition Zposition Zrotation Xrotation Yrotation
            End Site
            {
              OFFSET 1.17583e-006 -9.81266 -2.89439e-008
            }
          }
        }
      }
    }
    JOINT RightCollar
    {
      OFFSET -6.11406 27.2248 4.23427
      CHANNELS 6 Xposition Yposition Zposition Zrotation Xrotation Yrotation
      JOINT RightUpArm
      {
        OFFSET -10.4566 2.3285 -0.910794
        CHANNELS 6 Xposition Yposition Zposition Zrotation Xrotation Yrotation
        JOINT RightLowArm
        {
          OFFSET -3.86856 -25.191 -1.74633
          CHANNELS 6 Xposition Yposition Zposition Zrotation Xrotation Yrotation
          JOINT RightHand
          {
            OFFSET -1.04759 -20.6242 1.75213
            CHANNELS 6 Xposition Yposition Zposition Zrotation Xrotation Yrotation
            End Site
            {
              OFFSET -2.03487e-006 -9.50367 -4.31372e-006
            }
          }
        }
      }
    }
  }
  JOINT LeftUpLeg
  {
    OFFSET 9 -3.38008e-006 -5.22996e-009
    CHANNELS 6 Xposition Yposition Zposition Zrotation Xrotation Yrotation
    JOINT LeftLowLeg
    {
      OFFSET -0.575 -51.431 3.90177
      CHANNELS 6 Xposition Yposition Zposition Zrotation Xrotation Yrotation
      JOINT LeftFoot
      {
        OFFSET 2.13082e-007 -43.5882 -3.90177
        CHANNELS 6 Xposition Yposition Zposition Zrotation Xrotation Yrotation
        End Site
        {
          OFFSET 7.44796e-007 -6.93413 15.0046
        }
      }
    }
  }
  JOINT RightUpLeg
  {
    OFFSET -9 6.86154e-007 -3.1954e-009
    CHANNELS 6 Xposition Yposition Zposition Zrotation Xrotation Yrotation
    JOINT RightLowLeg
    {
      OFFSET 0.575 -51.4311 3.90177
      CHANNELS 6 Xposition Yposition Zposition Zrotation Xrotation Yrotation
      JOINT RightFoot
      {
        OFFSET -7.46079e-007 -43.5882 -3.90177
        CHANNELS 6 Xposition Yposition Zposition Zrotation Xrotation Yrotation
        End Site
        {
          OFFSET 4.66716e-007 -6.93413 15.0046
        }
      }
    }
  }
}
MOTION
Frames:	6
Frame Time:	0.0333333
42.3664 102.941 -11.8346 -0.221482 -0.0193012 0.293117 1.23234e-007 14.8421 1.27324e-009 1.2051 -8.40992 -4.24759 0.51659 29.8236 6.51843 -0.747506 9.90805 -0.417317 1.16803e-007 7.47049 6.44171e-007 -0.104216 -0.0457084 -0.0781048 6.64893 27.3161 3.27471 -2.94784 5.93879 -4.20517 10.8584 2.41798 -0.945791 72.4006 7.23384 52.8938 3.77631 -24.5904 -1.70468 15.5817 -11.7047 -11.4379 1.01026 -21.1231 1.74131 12.0553 9.2952 0.767326 -6.11406 27.2248 4.23427 -1.96452 7.32629 3.42623 -10.4566 2.3285 -0.910794 -70.2695 0.669938 -47.0868 -3.86856 -25.191 -1.74633 -16.3107 -2.89393 35.4685 -1.04759 -20.6242 1.75213 -2.34727 7.42062 -0.459758 9 -3.38008e-006 -5.22996e-009 3.15307 0.367873 10.7968 -0.575 -51.431 3.90177 -1.72952 3.59594 -8.91375 2.13082e-007 -43.5882 -3.90177 0.534461 -0.312956 -0.0532148 -9 6.86154e-007 -3.1954e-009 -3.68681 -0.209922 -14.1284 0.575 -51.4311 3.90177 -0.432578 4.65661 -1.86999 -7.46079e-007 -43.5882 -3.90177 -2.9653 -1.33045 0.250536 
42.3604 102.942 -11.8205 -0.242707 -0.0766495 0.280357 1.23234e-007 14.8421 1.27324e-009 1.23723 -8.38693 -4.24291 0.51659 29.8236 6.51843 -0.876053 10.7864 -0.663589 1.16803e-007 7.47049 6.44171e-007 -0.246056 -1.0169 -0.346611 6.64893 27.3161 3.27471 -2.94784 5.93879 -4.20517 10.8584 2.41798 -0.945791 72.2654 7.32333 52.7864 3.77631 -24.5904 -1.70468 15.6111 -11.7581 -11.3484 1.01026 -21.1231 1.74131 12.369 9.52648 0.770912 -6.11406 27.2248 4.23427 -1.96452 7.32629 3.42623 -10.4566 2.3285 -0.910794 -70.167 0.513653 -46.9295 -3.86856 -25.191 -1.74633 -16.246 -2.89426 35.3857 -1.04759 -20.6242 1.75213 -2.58741 7.60945 -0.482158 9 -3.38008e-006 -5.22996e-009 3.18428 0.447003 10.8245 -0.575 -51.431 3.90177 -1.74072 3.56347 -8.92074 2.13082e-007 -43.5882 -3.90177 0.518825 -0.260957 -0.0516636 -9 6.86154e-007 -3.1954e-009 -3.66823 -0.180833 -14.1373 0.575 -51.4311 3.90177 -0.43044 4.73888 -1.95812 -7.46079e-007 -43.5882 -3.90177 -2.96182 -1.39055 0.249603 
42.3644 102.944 -11.8184 -0.198002 -0.180214 0.2307 1.23234e-007 14.8421 1.27324e-009 1.20167 -8.27731 -4.13945 0.51659 29.8236 6.51843 -0.853468 11.1494 -0.79427 1.16803e-007 7.47049 6.44171e-007 -0.355327 -1.31211 -0.447583 6.64893 27.3161 3.27471 -2.94784 5.93879 -4.20517 10.8584 2.41798 -0.945791 72.1975 7.41622 52.7212 3.77631 -24.5904 -1.70468 15.6098 -11.7553 -11.3649 1.01026 -21.1231 1.74131 12.4189 9.57373 0.770834 -6.11406 27.2248 4.23427 -1.96452 7.32629 3.42623 -10.4566 2.3285 -0.910794 -69.99 0.362273 -47.0828 -3.86856 -25.191 -1.74633 -16.3271 -2.93198 35.5779 -1.04759 -20.6242 1.75213 -2.62794 7.4548 -0.477489 9 -3.38008e-006 -5.22996e-009 3.12008 0.618083 10.7898 -0.575 -51.431 3.90177 -1.7301 3.41925 -8.78577 2.13082e-007 -43.5882 -3.90177 0.50087 -0.200697 -0.0498513 -9 6.86154e-007 -3.1954e-009 -3.71557 -0.166829 -14.1525 0.575 -51.4311 3.90177 -0.471936 4.92195 -1.92746 -7.46079e-007 -43.5882 -3.90177 -2.93661 -1.43516 0.247159 
42.3912 102.945 -11.7571 0.0843717 -0.500172 0.173081 1.23234e-007 14.8421 1.27324e-009 0.872671 -7.98144 -3.98487 0.51659 29.8236 6.51843 -0.984493 11.7189 -0.780525 1.16803e-007 7.47049 6.44171e-007 -0.338507 -1.719 -0.491757 6.64893 27.3161 3.27471 -2.94784 5.93879 -4.20517 10.8584 2.41798 -0.945791 72.2834 7.37575 52.9224 3.77631 -24.5904 -1.70468 15.6432 -11.7447 -11.5396 1.01026 -21.1231 1.74131 12.0352 9.6249 0.752651 -6.11406 27.2248 4.23427 -1.96452 7.32629 3.42623 -10.4566 2.3285 -0.910794 -69.7791 0.321019 -47.008 -3.86856 -25.191 -1.74633 -16.291 -2.91338 35.5699 -1.04759 -20.6242 1.75213 -2.49075 7.34537 -0.464798 9 -3.38008e-006 -5.22996e-009 2.78823 1.18233 10.6388 -0.575 -51.431 3.90177 -1.74294 2.97694 -8.59061 2.13082e-007 -43.5882 -3.90177 0.476781 -0.0558777 -0.0473328 -9 6.86154e-007 -3.1954e-009 -4.04849 0.0451964 -14.3593 0.575 -51.4311 3.90177 -0.469717 5.23575 -1.64974 -7.46079e-007 -43.5882 -3.90177 -2.9404 -1.62497 0.245397 
42.3806 102.953 -11.7531 0.0756895 -0.492029 0.176242 1.23234e-007 14.8421 1.27324e-009 0.854866 -8.0719 -3.86506 0.51659 29.8236 6.51843 -0.955988 12.1245 -0.714333 1.16803e-007 7.47049 6.44171e-007 -0.282123 -1.85973 -0.421986 6.64893 27.3161 3.27471 -2.94784 5.93879 -4.20517 10.8584 2.41798 -0.945791 72.3105 7.34525 52.9944 3.77631 -24.5904 -1.70468 15.6835 -11.8052 -11.3833 1.01026 -21.1231 1.74131 11.8494 9.67108 0.743069 -6.11406 27.2248 4.23427 -1.96452 7.32629 3.42623 -10.4566 2.3285 -0.910794 -69.7023 0.381509 -46.6116 -3.86856 -25.191 -1.74633 -16.0849 -2.79716 35.2861 -1.04759 -20.6242 1.75213 -2.38704 7.61391 -0.471053 9 -3.38008e-006 -5.22996e-009 2.81196 1.19612 10.6668 -0.575 -51.431 3.90177 -1.7678 2.9396 -8.55894 2.13082e-007 -43.5882 -3.90177 0.492458 -0.0687118 -0.0488895 -9 6.86154e-007 -3.1954e-009 -4.06278 -0.0436144 -14.3783 0.575 -51.4311 3.90177 -0.457881 5.41037 -1.65425 -7.46079e-007 -43.5882 -3.90177 -2.89656 -1.57518 0.24261 
42.3602 102.936 -11.766 0.0632303 -0.451143 0.213308 1.23234e-007 14.8421 1.27324e-009 0.863162 -8.18109 -3.76101 0.51659 29.8236 6.51843 -0.80334 12.3205 -0.708925 1.16803e-007 7.47049 6.44171e-007 -0.414733 -1.82302 -0.328502 6.64893 27.3161 3.27471 -2.94784 5.93879 -4.20517 10.8584 2.41798 -0.945791 72.3969 7.34704 52.8051 3.77631 -24.5904 -1.70468 15.6148 -11.7672 -11.156 1.01026 -21.1231 1.74131 11.9127 9.83543 0.739034 -6.11406 27.2248 4.23427 -1.96452 7.32629 3.42623 -10.4566 2.3285 -0.910794 -69.6952 0.390445 -46.7638 -3.86856 -25.191 -1.74633 -16.1702 -2.83713 35.3873 -1.04759 -20.6242 1.75213 -2.1211 7.39354 -0.445444 9 -3.38008e-006 -5.22996e-009 2.85142 1.0786 10.6914 -0.575 -51.431 3.90177 -1.77935 3.07856 -8.6463 2.13082e-007 -43.5882 -3.90177 0.501583 -0.111105 -0.049834 -9 6.86154e-007 -3.1954e-009 -4.02121 0.0629792 -14.379 0.575 -51.4311 3.90177 -0.41301 5.12178 -1.64709 -7.46079e-007 -43.5882 -3.90177 -2.97558 -1.66894 0.247568 
